# xmcd
#
# Track frame offsets: 
#        150
#        9595
#        20460
#        30745
#        42320
#        54020
#        65075
#        74175
#        81260
#        90242
#        103122
#        112302
#        123550
#        134705
#        144482
#
# Disc length: 2059 seconds
#
# Revision: 1
# Processed by: cddbd v1.5.2PL0 Copyright (c) Steve Scherf et al.
# Submitted via: ExactAudioCopy v0.99pb5
#
DISCID=dc08090f
DTITLE=Conway Twitty - Great Man Of Country
DYEAR=2002
DGENRE=Country
TTITLE0=Ever Since You Went Away
TTITLE1=Big Town
TTITLE2=Let Me Be The Judge
TTITLE3=You Made Me What I Am Today
TTITLE4=Sitting In A Dim Cafe
TTITLE5=Have I Been Away Too Long
TTITLE6=Wonder If You Told Her About Me
TTITLE7=Treat Me Mean, Treat Me Cruel
TTITLE8=The Road That I Walk
TTITLE9=Reputation
TTITLE10=Don't Go To Far
TTITLE11=Broken Heart
TTITLE12=Angel's Wing
TTITLE13=Riskin' One
TTITLE14=Where I Stand
EXTD=ID3G: 2
EXTT0=
EXTT1=
EXTT2=
EXTT3=
EXTT4=
EXTT5=
EXTT6=
EXTT7=
EXTT8=
EXTT9=
EXTT10=
EXTT11=
EXTT12=
EXTT13=
EXTT14=
PLAYORDER=
